# xmcd CD database file
#
# Track frame offsets:
#	150
#	26543
#	44572
#	67768
#	86174
#	98791
#	121038
#
# Disc length: 1923 seconds
#
# Revision: 0
# Processed by: cddbd v1.5.1PL0 Copyright (c) Steve Scherf et al.
# Submitted via: CDex 1.51
#
DISCID=50078107
DTITLE=Orchestra Jazz Atipica Bonamici Group-One - Interferenze
DYEAR=2003
DGENRE=Jazz
TTITLE0=Gruppone!
TTITLE1=One For Paul
TTITLE2=Pulcinella
TTITLE3=In Flu And Sun
TTITLE4=Ave Maria
TTITLE5=Nostalgia In Times Square
TTITLE6=Nevermore
EXTD=YEAR: 2003
EXTT0=
EXTT1=
EXTT2=
EXTT3=
EXTT4=
EXTT5=
EXTT6=
PLAYORDER=
